<svg id="visual" viewBox="0 0 900 600" width="900" height="600" xmlns="http://www.w3.org/2000/svg" xmlns:xlink="http://www.w3.org/1999/xlink" version="1.1"><rect x="0" y="0" width="900" height="600" fill="#9ed5ff"></rect><path d="M0 24L13.7 25.5C27.3 27 54.7 30 82 34.8C109.3 39.7 136.7 46.3 163.8 46.2C191 46 218 39 245.2 41.3C272.3 43.7 299.7 55.3 327 55.7C354.3 56 381.7 45 409 39.5C436.3 34 463.7 34 491 34.8C518.3 35.7 545.7 37.3 573 38.2C600.3 39 627.7 39 654.8 41.2C682 43.3 709 47.7 736.2 46.2C763.3 44.7 790.7 37.3 818 40C845.3 42.7 872.7 55.3 886.3 61.7L900 68L900 601L886.3 601C872.7 601 845.3 601 818 601C790.7 601 763.3 601 736.2 601C709 601 682 601 654.8 601C627.7 601 600.3 601 573 601C545.7 601 518.3 601 491 601C463.7 601 436.3 601 409 601C381.7 601 354.3 601 327 601C299.7 601 272.3 601 245.2 601C218 601 191 601 163.8 601C136.7 601 109.3 601 82 601C54.7 601 27.3 601 13.7 601L0 601Z" fill="#47bcff"></path><path d="M0 75L13.7 80.2C27.3 85.3 54.7 95.7 82 97.5C109.3 99.3 136.7 92.7 163.8 92C191 91.3 218 96.7 245.2 97.7C272.3 98.7 299.7 95.3 327 94.2C354.3 93 381.7 94 409 95C436.3 96 463.7 97 491 99.5C518.3 102 545.7 106 573 108.3C600.3 110.7 627.7 111.3 654.8 106.8C682 102.3 709 92.7 736.2 91C763.3 89.3 790.7 95.7 818 99.5C845.3 103.3 872.7 104.7 886.3 105.3L900 106L900 601L886.3 601C872.7 601 845.3 601 818 601C790.7 601 763.3 601 736.2 601C709 601 682 601 654.8 601C627.7 601 600.3 601 573 601C545.7 601 518.3 601 491 601C463.7 601 436.3 601 409 601C381.7 601 354.3 601 327 601C299.7 601 272.3 601 245.2 601C218 601 191 601 163.8 601C136.7 601 109.3 601 82 601C54.7 601 27.3 601 13.7 601L0 601Z" fill="#34b4ff"></path><path d="M0 135L13.7 132.8C27.3 130.7 54.7 126.3 82 127.3C109.3 128.3 136.7 134.7 163.8 133.5C191 132.3 218 123.7 245.2 126.2C272.3 128.7 299.7 142.3 327 148.8C354.3 155.3 381.7 154.7 409 151.8C436.3 149 463.7 144 491 141.3C518.3 138.7 545.7 138.3 573 140.2C600.3 142 627.7 146 654.8 142.7C682 139.3 709 128.7 736.2 125.7C763.3 122.7 790.7 127.3 818 134.3C845.3 141.3 872.7 150.7 886.3 155.3L900 160L900 601L886.3 601C872.7 601 845.3 601 818 601C790.7 601 763.3 601 736.2 601C709 601 682 601 654.8 601C627.7 601 600.3 601 573 601C545.7 601 518.3 601 491 601C463.7 601 436.3 601 409 601C381.7 601 354.3 601 327 601C299.7 601 272.3 601 245.2 601C218 601 191 601 163.8 601C136.7 601 109.3 601 82 601C54.7 601 27.3 601 13.7 601L0 601Z" fill="#1fabff"></path><path d="M0 178L13.7 182.3C27.3 186.7 54.7 195.3 82 196.2C109.3 197 136.7 190 163.8 188C191 186 218 189 245.2 185.7C272.3 182.3 299.7 172.7 327 168.2C354.3 163.7 381.7 164.3 409 165.7C436.3 167 463.7 169 491 172.3C518.3 175.7 545.7 180.3 573 182.8C600.3 185.3 627.7 185.7 654.8 187C682 188.3 709 190.7 736.2 192C763.3 193.3 790.7 193.7 818 194.3C845.3 195 872.7 196 886.3 196.5L900 197L900 601L886.3 601C872.7 601 845.3 601 818 601C790.7 601 763.3 601 736.2 601C709 601 682 601 654.8 601C627.7 601 600.3 601 573 601C545.7 601 518.3 601 491 601C463.7 601 436.3 601 409 601C381.7 601 354.3 601 327 601C299.7 601 272.3 601 245.2 601C218 601 191 601 163.8 601C136.7 601 109.3 601 82 601C54.7 601 27.3 601 13.7 601L0 601Z" fill="#03a2ff"></path><path d="M0 251L13.7 246C27.3 241 54.7 231 82 225.2C109.3 219.3 136.7 217.7 163.8 221C191 224.3 218 232.7 245.2 235.2C272.3 237.7 299.7 234.3 327 233.2C354.3 232 381.7 233 409 231C436.3 229 463.7 224 491 219.8C518.3 215.7 545.7 212.3 573 215.8C600.3 219.3 627.7 229.7 654.8 235.7C682 241.7 709 243.3 736.2 242.2C763.3 241 790.7 237 818 234.5C845.3 232 872.7 231 886.3 230.5L900 230L900 601L886.3 601C872.7 601 845.3 601 818 601C790.7 601 763.3 601 736.2 601C709 601 682 601 654.8 601C627.7 601 600.3 601 573 601C545.7 601 518.3 601 491 601C463.7 601 436.3 601 409 601C381.7 601 354.3 601 327 601C299.7 601 272.3 601 245.2 601C218 601 191 601 163.8 601C136.7 601 109.3 601 82 601C54.7 601 27.3 601 13.7 601L0 601Z" fill="#0099fe"></path><path d="M0 294L13.7 290C27.3 286 54.7 278 82 277.8C109.3 277.7 136.7 285.3 163.8 286.5C191 287.7 218 282.3 245.2 282.8C272.3 283.3 299.7 289.7 327 289.3C354.3 289 381.7 282 409 277.5C436.3 273 463.7 271 491 274C518.3 277 545.7 285 573 284.5C600.3 284 627.7 275 654.8 274.3C682 273.7 709 281.3 736.2 285.5C763.3 289.7 790.7 290.3 818 286C845.3 281.7 872.7 272.3 886.3 267.7L900 263L900 601L886.3 601C872.7 601 845.3 601 818 601C790.7 601 763.3 601 736.2 601C709 601 682 601 654.8 601C627.7 601 600.3 601 573 601C545.7 601 518.3 601 491 601C463.7 601 436.3 601 409 601C381.7 601 354.3 601 327 601C299.7 601 272.3 601 245.2 601C218 601 191 601 163.8 601C136.7 601 109.3 601 82 601C54.7 601 27.3 601 13.7 601L0 601Z" fill="#008ffc"></path><path d="M0 337L13.7 331.7C27.3 326.3 54.7 315.7 82 313.8C109.3 312 136.7 319 163.8 323.7C191 328.3 218 330.7 245.2 330.2C272.3 329.7 299.7 326.3 327 323.7C354.3 321 381.7 319 409 317.8C436.3 316.7 463.7 316.3 491 317C518.3 317.7 545.7 319.3 573 317.8C600.3 316.3 627.7 311.7 654.8 310.7C682 309.7 709 312.3 736.2 317.5C763.3 322.7 790.7 330.3 818 329C845.3 327.7 872.7 317.3 886.3 312.2L900 307L900 601L886.3 601C872.7 601 845.3 601 818 601C790.7 601 763.3 601 736.2 601C709 601 682 601 654.8 601C627.7 601 600.3 601 573 601C545.7 601 518.3 601 491 601C463.7 601 436.3 601 409 601C381.7 601 354.3 601 327 601C299.7 601 272.3 601 245.2 601C218 601 191 601 163.8 601C136.7 601 109.3 601 82 601C54.7 601 27.3 601 13.7 601L0 601Z" fill="#0085fa"></path><path d="M0 387L13.7 386.2C27.3 385.3 54.7 383.7 82 382C109.3 380.3 136.7 378.7 163.8 374.5C191 370.3 218 363.7 245.2 365C272.3 366.3 299.7 375.7 327 379.5C354.3 383.3 381.7 381.7 409 375.8C436.3 370 463.7 360 491 355C518.3 350 545.7 350 573 352.7C600.3 355.3 627.7 360.7 654.8 365.3C682 370 709 374 736.2 371.3C763.3 368.7 790.7 359.3 818 357C845.3 354.7 872.7 359.3 886.3 361.7L900 364L900 601L886.3 601C872.7 601 845.3 601 818 601C790.7 601 763.3 601 736.2 601C709 601 682 601 654.8 601C627.7 601 600.3 601 573 601C545.7 601 518.3 601 491 601C463.7 601 436.3 601 409 601C381.7 601 354.3 601 327 601C299.7 601 272.3 601 245.2 601C218 601 191 601 163.8 601C136.7 601 109.3 601 82 601C54.7 601 27.3 601 13.7 601L0 601Z" fill="#007bf7"></path><path d="M0 428L13.7 429C27.3 430 54.7 432 82 429.3C109.3 426.7 136.7 419.3 163.8 419.3C191 419.3 218 426.7 245.2 428.2C272.3 429.7 299.7 425.3 327 421.8C354.3 418.3 381.7 415.7 409 413.8C436.3 412 463.7 411 491 409.8C518.3 408.7 545.7 407.3 573 410.8C600.3 414.3 627.7 422.7 654.8 425.5C682 428.3 709 425.7 736.2 423.7C763.3 421.7 790.7 420.3 818 419.5C845.3 418.7 872.7 418.3 886.3 418.2L900 418L900 601L886.3 601C872.7 601 845.3 601 818 601C790.7 601 763.3 601 736.2 601C709 601 682 601 654.8 601C627.7 601 600.3 601 573 601C545.7 601 518.3 601 491 601C463.7 601 436.3 601 409 601C381.7 601 354.3 601 327 601C299.7 601 272.3 601 245.2 601C218 601 191 601 163.8 601C136.7 601 109.3 601 82 601C54.7 601 27.3 601 13.7 601L0 601Z" fill="#0070f3"></path><path d="M0 444L13.7 443.5C27.3 443 54.7 442 82 442.5C109.3 443 136.7 445 163.8 446.8C191 448.7 218 450.3 245.2 450.8C272.3 451.3 299.7 450.7 327 453.7C354.3 456.7 381.7 463.3 409 462.7C436.3 462 463.7 454 491 453.7C518.3 453.3 545.7 460.7 573 461.3C600.3 462 627.7 456 654.8 455C682 454 709 458 736.2 456.7C763.3 455.3 790.7 448.7 818 447.5C845.3 446.3 872.7 450.7 886.3 452.8L900 455L900 601L886.3 601C872.7 601 845.3 601 818 601C790.7 601 763.3 601 736.2 601C709 601 682 601 654.8 601C627.7 601 600.3 601 573 601C545.7 601 518.3 601 491 601C463.7 601 436.3 601 409 601C381.7 601 354.3 601 327 601C299.7 601 272.3 601 245.2 601C218 601 191 601 163.8 601C136.7 601 109.3 601 82 601C54.7 601 27.3 601 13.7 601L0 601Z" fill="#0865ee"></path><path d="M0 518L13.7 518.3C27.3 518.7 54.7 519.3 82 518.7C109.3 518 136.7 516 163.8 514.7C191 513.3 218 512.7 245.2 508.8C272.3 505 299.7 498 327 495.7C354.3 493.3 381.7 495.7 409 497.7C436.3 499.7 463.7 501.3 491 502.7C518.3 504 545.7 505 573 503C600.3 501 627.7 496 654.8 497C682 498 709 505 736.2 508.3C763.3 511.7 790.7 511.3 818 509.2C845.3 507 872.7 503 886.3 501L900 499L900 601L886.3 601C872.7 601 845.3 601 818 601C790.7 601 763.3 601 736.2 601C709 601 682 601 654.8 601C627.7 601 600.3 601 573 601C545.7 601 518.3 601 491 601C463.7 601 436.3 601 409 601C381.7 601 354.3 601 327 601C299.7 601 272.3 601 245.2 601C218 601 191 601 163.8 601C136.7 601 109.3 601 82 601C54.7 601 27.3 601 13.7 601L0 601Z" fill="#1d59e9"></path><path d="M0 560L13.7 558.7C27.3 557.3 54.7 554.7 82 551.5C109.3 548.3 136.7 544.7 163.8 542.2C191 539.7 218 538.3 245.2 540.5C272.3 542.7 299.7 548.3 327 550.5C354.3 552.7 381.7 551.3 409 549.8C436.3 548.3 463.7 546.7 491 543.3C518.3 540 545.7 535 573 539.5C600.3 544 627.7 558 654.8 561.5C682 565 709 558 736.2 551.7C763.3 545.3 790.7 539.7 818 536.2C845.3 532.7 872.7 531.3 886.3 530.7L900 530L900 601L886.3 601C872.7 601 845.3 601 818 601C790.7 601 763.3 601 736.2 601C709 601 682 601 654.8 601C627.7 601 600.3 601 573 601C545.7 601 518.3 601 491 601C463.7 601 436.3 601 409 601C381.7 601 354.3 601 327 601C299.7 601 272.3 601 245.2 601C218 601 191 601 163.8 601C136.7 601 109.3 601 82 601C54.7 601 27.3 601 13.7 601L0 601Z" fill="#2c4de3"></path></svg>